<svg id="Layer_1" data-name="Layer 1" xmlns="http://www.w3.org/2000/svg" viewBox="0 0 479.06 420.75"><defs><style>.cls-1{fill:#d01e4f;}</style></defs><path class="cls-1" d="M524.19,343.73a245.6,245.6,0,0,0-13.61-38.15c-13.17-22.18-45.81-69.7-106.15-95.39a210.38,210.38,0,0,0-68.05-16.35c-53.06-3.41-93.57,14.88-111.6,24.53A212.37,212.37,0,0,0,145.85,292C167,311.37,203.23,339,254.72,354.63a274.65,274.65,0,0,0,55.71,10.77,31.56,31.56,0,1,0,6.4-21.78A71.39,71.39,0,0,1,286.7,328.4c-18-15.47-22.6-35.41-23.81-41.9a115.76,115.76,0,0,1,5.44-40.88,114,114,0,0,1,8.17-19.08,59.79,59.79,0,0,0,2.72,5.46c9.77,17.33,25.54,25.26,40.83,32.7,20.28,9.87,50,24.28,76.21,40.88a69.23,69.23,0,0,1,16.33,13.63c9.12,10.51,16.17,25.47,16.33,38.15.31,23.38-22.66,48.46-57.16,57.23a106.82,106.82,0,0,1,24.5,8.18c4.8,2.28,50.06,23.8,49,54.5-.49,14.13-10.58,24.24-19.05,32.71-5.18,5.19-19,17.69-54.44,27.25-7.52,2-34.19,8.83-76.21,8.18a373.68,373.68,0,0,1-81.28-10.32L252,480h56.25a31.62,31.62,0,1,0,2.82-25.14,569.46,569.46,0,0,1-181.55-64.8A560.65,560.65,0,0,1,53.3,338.28C54.81,352.5,61.06,393,94.13,420a102.36,102.36,0,0,0,21.78,13.63,203.56,203.56,0,0,0,8.16,35.43c22.08,67.5,73.27,103.32,81.66,109,14.12,9.59,63.92,40.86,133.37,35.43,12.52-1,79.56-7.36,133.37-62.68,5.09-5.23,41.18-43.23,54.44-100.84a218.32,218.32,0,0,0,5.44-46.33C532.39,398.3,532.34,374.33,524.19,343.73ZM342.4,346.46A16.54,16.54,0,1,1,325.89,363,16.52,16.52,0,0,1,342.4,346.46Zm-3.46,107.79a16.54,16.54,0,1,1-16.51,16.54A16.54,16.54,0,0,1,338.94,454.25Z" transform="translate(-53.3 -193.42)"/></svg>